<svg width="34" height="27" viewBox="0 0 34 27" fill="none" xmlns="http://www.w3.org/2000/svg">
<path d="M1.52067 4.03486C0.826444 3.34042 0.826444 2.21486 1.52067 1.52042C2.215 0.826528 3.34056 0.826528 4.035 1.52042L14.7 12.1887C15.3944 12.8832 15.3944 14.0054 14.7 14.6999L4.035 25.3665C3.34056 26.061 2.215 26.061 1.52067 25.3665C0.826444 24.6721 0.826444 23.5498 1.52067 22.8554L10.9278 13.4443L1.52067 4.03486ZM31.2222 22.3332C32.2056 22.3332 33 23.1276 33 24.111C33 25.0943 32.2056 25.8887 31.2222 25.8887H15.2222C14.2389 25.8887 13.4444 25.0943 13.4444 24.111C13.4444 23.1276 14.2389 22.3332 15.2222 22.3332H31.2222Z" stroke="#3294F8" stroke-width="1.5"/>
</svg>
